<svg xmlns="http://www.w3.org/2000/svg" xmlns:xlink="http://www.w3.org/1999/xlink" width="2000" zoomAndPan="magnify" viewBox="0 0 1500 1499.999933" height="2000" preserveAspectRatio="xMidYMid meet" version="1.0"><defs><clipPath id="91e0c7488d"><path d="M 527 373 L 539 373 L 539 508.5 L 527 508.5 Z M 527 373 " clip-rule="nonzero"/></clipPath><clipPath id="8b93053142"><path d="M 527 497 L 601 497 L 601 508.5 L 527 508.5 Z M 527 497 " clip-rule="nonzero"/></clipPath><clipPath id="f2d41b637b"><path d="M 589 373 L 601 373 L 601 508.5 L 589 508.5 Z M 589 373 " clip-rule="nonzero"/></clipPath><clipPath id="c472afc913"><path d="M 713 0 L 725 0 L 725 508.5 L 713 508.5 Z M 713 0 " clip-rule="nonzero"/></clipPath><clipPath id="f4941d391f"><path d="M 589 497 L 725 497 L 725 508.5 L 589 508.5 Z M 589 497 " clip-rule="nonzero"/></clipPath><clipPath id="e4a6f50a74"><path d="M 775 0 L 787 0 L 787 508.5 L 775 508.5 Z M 775 0 " clip-rule="nonzero"/></clipPath><clipPath id="6686c849f8"><path d="M 713 497 L 787 497 L 787 508.5 L 713 508.5 Z M 713 497 " clip-rule="nonzero"/></clipPath><clipPath id="154ab94d0a"><path d="M 900 0 L 912 0 L 912 508.5 L 900 508.5 Z M 900 0 " clip-rule="nonzero"/></clipPath><clipPath id="e44aa68f97"><path d="M 775 497 L 912 497 L 912 508.5 L 775 508.5 Z M 775 497 " clip-rule="nonzero"/></clipPath><clipPath id="f237da37ad"><path d="M 900 0 L 973.140625 0 L 973.140625 12 L 900 12 Z M 900 0 " clip-rule="nonzero"/></clipPath><clipPath id="a56284e423"><path d="M 962 0 L 973.140625 0 L 973.140625 508.5 L 962 508.5 Z M 962 0 " clip-rule="nonzero"/></clipPath><clipPath id="0189dceb6b"><path d="M 900 497 L 973.140625 497 L 973.140625 508.5 L 900 508.5 Z M 900 497 " clip-rule="nonzero"/></clipPath><clipPath id="bd5955d9c7"><path d="M 900 373 L 973.140625 373 L 973.140625 385 L 900 385 Z M 900 373 " clip-rule="nonzero"/></clipPath><clipPath id="6187616441"><path d="M 900 124 L 973.140625 124 L 973.140625 136 L 900 136 Z M 900 124 " clip-rule="nonzero"/></clipPath><clipPath id="0323efa522"><path d="M 527 493.152344 L 539 493.152344 L 539 629 L 527 629 Z M 527 493.152344 " clip-rule="nonzero"/></clipPath><clipPath id="2dd1d04b1d"><path d="M 527 493.152344 L 601 493.152344 L 601 505 L 527 505 Z M 527 493.152344 " clip-rule="nonzero"/></clipPath><clipPath id="b9ebcba4ba"><path d="M 589 493.152344 L 601 493.152344 L 601 629 L 589 629 Z M 589 493.152344 " clip-rule="nonzero"/></clipPath><clipPath id="cc19d1b55f"><path d="M 527 866 L 539 866 L 539 1001.652344 L 527 1001.652344 Z M 527 866 " clip-rule="nonzero"/></clipPath><clipPath id="5fe5da7adc"><path d="M 527 990 L 601 990 L 601 1001.652344 L 527 1001.652344 Z M 527 990 " clip-rule="nonzero"/></clipPath><clipPath id="3764f9112b"><path d="M 589 866 L 601 866 L 601 1001.652344 L 589 1001.652344 Z M 589 866 " clip-rule="nonzero"/></clipPath><clipPath id="158ba57f5a"><path d="M 589 493.152344 L 725 493.152344 L 725 505 L 589 505 Z M 589 493.152344 " clip-rule="nonzero"/></clipPath><clipPath id="a78d70954d"><path d="M 713 493.152344 L 725 493.152344 L 725 1001.652344 L 713 1001.652344 Z M 713 493.152344 " clip-rule="nonzero"/></clipPath><clipPath id="822bbbc0a7"><path d="M 589 990 L 725 990 L 725 1001.652344 L 589 1001.652344 Z M 589 990 " clip-rule="nonzero"/></clipPath><clipPath id="6a1c690ec6"><path d="M 775 493.152344 L 787 493.152344 L 787 1001.652344 L 775 1001.652344 Z M 775 493.152344 " clip-rule="nonzero"/></clipPath><clipPath id="6e499841b0"><path d="M 713 990 L 787 990 L 787 1001.652344 L 713 1001.652344 Z M 713 990 " clip-rule="nonzero"/></clipPath><clipPath id="eb69141e9a"><path d="M 713 493.152344 L 787 493.152344 L 787 505 L 713 505 Z M 713 493.152344 " clip-rule="nonzero"/></clipPath><clipPath id="1763766a66"><path d="M 775 493.152344 L 912 493.152344 L 912 505 L 775 505 Z M 775 493.152344 " clip-rule="nonzero"/></clipPath><clipPath id="8c6ed12377"><path d="M 900 493.152344 L 912 493.152344 L 912 1001.652344 L 900 1001.652344 Z M 900 493.152344 " clip-rule="nonzero"/></clipPath><clipPath id="7dd09e773f"><path d="M 775 990 L 912 990 L 912 1001.652344 L 775 1001.652344 Z M 775 990 " clip-rule="nonzero"/></clipPath><clipPath id="ceb5b4403e"><path d="M 900 493.152344 L 973.140625 493.152344 L 973.140625 505 L 900 505 Z M 900 493.152344 " clip-rule="nonzero"/></clipPath><clipPath id="e195089ca7"><path d="M 962 493.152344 L 973.140625 493.152344 L 973.140625 1001.652344 L 962 1001.652344 Z M 962 493.152344 " clip-rule="nonzero"/></clipPath><clipPath id="77b5963d0b"><path d="M 900 990 L 973.140625 990 L 973.140625 1001.652344 L 900 1001.652344 Z M 900 990 " clip-rule="nonzero"/></clipPath><clipPath id="e46dd0561b"><path d="M 900 866 L 973.140625 866 L 973.140625 878 L 900 878 Z M 900 866 " clip-rule="nonzero"/></clipPath><clipPath id="52bc5146db"><path d="M 900 617 L 973.140625 617 L 973.140625 629 L 900 629 Z M 900 617 " clip-rule="nonzero"/></clipPath><clipPath id="868a747cc0"><path d="M 527 991.492188 L 539 991.492188 L 539 1127 L 527 1127 Z M 527 991.492188 " clip-rule="nonzero"/></clipPath><clipPath id="17930dcd0a"><path d="M 527 991.492188 L 601 991.492188 L 601 1003 L 527 1003 Z M 527 991.492188 " clip-rule="nonzero"/></clipPath><clipPath id="96c1c66506"><path d="M 589 991.492188 L 601 991.492188 L 601 1127 L 589 1127 Z M 589 991.492188 " clip-rule="nonzero"/></clipPath><clipPath id="ec1e810631"><path d="M 527 1364 L 539 1364 L 539 1499.992188 L 527 1499.992188 Z M 527 1364 " clip-rule="nonzero"/></clipPath><clipPath id="66a43eaeb7"><path d="M 527 1489 L 601 1489 L 601 1499.992188 L 527 1499.992188 Z M 527 1489 " clip-rule="nonzero"/></clipPath><clipPath id="d346ca6bda"><path d="M 589 1364 L 601 1364 L 601 1499.992188 L 589 1499.992188 Z M 589 1364 " clip-rule="nonzero"/></clipPath><clipPath id="80a15224c0"><path d="M 589 991.492188 L 725 991.492188 L 725 1003 L 589 1003 Z M 589 991.492188 " clip-rule="nonzero"/></clipPath><clipPath id="417c205510"><path d="M 713 991.492188 L 725 991.492188 L 725 1499.992188 L 713 1499.992188 Z M 713 991.492188 " clip-rule="nonzero"/></clipPath><clipPath id="02f0b681f2"><path d="M 589 1489 L 725 1489 L 725 1499.992188 L 589 1499.992188 Z M 589 1489 " clip-rule="nonzero"/></clipPath><clipPath id="afc13399c6"><path d="M 775 991.492188 L 787 991.492188 L 787 1499.992188 L 775 1499.992188 Z M 775 991.492188 " clip-rule="nonzero"/></clipPath><clipPath id="ca9e66dd4b"><path d="M 713 1489 L 787 1489 L 787 1499.992188 L 713 1499.992188 Z M 713 1489 " clip-rule="nonzero"/></clipPath><clipPath id="41c04ef732"><path d="M 713 991.492188 L 787 991.492188 L 787 1003 L 713 1003 Z M 713 991.492188 " clip-rule="nonzero"/></clipPath><clipPath id="ef8e18e0b0"><path d="M 775 991.492188 L 912 991.492188 L 912 1003 L 775 1003 Z M 775 991.492188 " clip-rule="nonzero"/></clipPath><clipPath id="0fb6cf7a97"><path d="M 900 991.492188 L 912 991.492188 L 912 1499.992188 L 900 1499.992188 Z M 900 991.492188 " clip-rule="nonzero"/></clipPath><clipPath id="c7a5b12094"><path d="M 775 1489 L 912 1489 L 912 1499.992188 L 775 1499.992188 Z M 775 1489 " clip-rule="nonzero"/></clipPath><clipPath id="49cc95f01e"><path d="M 900 991.492188 L 973.140625 991.492188 L 973.140625 1003 L 900 1003 Z M 900 991.492188 " clip-rule="nonzero"/></clipPath><clipPath id="8b8de0d7d5"><path d="M 962 991.492188 L 973.140625 991.492188 L 973.140625 1499.992188 L 962 1499.992188 Z M 962 991.492188 " clip-rule="nonzero"/></clipPath><clipPath id="4b7144ec6b"><path d="M 900 1489 L 973.140625 1489 L 973.140625 1499.992188 L 900 1499.992188 Z M 900 1489 " clip-rule="nonzero"/></clipPath><clipPath id="7dcddae8c9"><path d="M 900 1364 L 973.140625 1364 L 973.140625 1376 L 900 1376 Z M 900 1364 " clip-rule="nonzero"/></clipPath><clipPath id="b6cfe0cdfc"><path d="M 900 1115 L 973.140625 1115 L 973.140625 1127 L 900 1127 Z M 900 1115 " clip-rule="nonzero"/></clipPath></defs><path fill="#523100" d="M 538.203125 5.632812 L 538.203125 129.996094 C 538.203125 133.035156 535.738281 135.5 532.699219 135.5 C 529.65625 135.5 527.191406 133.035156 527.191406 129.996094 L 527.191406 5.632812 C 527.191406 2.589844 529.65625 0.125 532.699219 0.125 C 535.738281 0.125 538.203125 2.589844 538.203125 5.632812 Z M 538.203125 5.632812 " fill-opacity="0.996" fill-rule="nonzero"/><path fill="#523100" d="M 532.699219 124.488281 L 594.878906 124.488281 C 597.921875 124.488281 600.386719 126.957031 600.386719 129.996094 C 600.386719 133.039062 597.921875 135.503906 594.878906 135.503906 L 532.699219 135.5 C 529.65625 135.5 527.191406 133.035156 527.191406 129.996094 C 527.191406 126.953125 529.65625 124.488281 532.699219 124.488281 Z M 532.699219 124.488281 " fill-opacity="0.996" fill-rule="nonzero"/><path fill="#523100" d="M 532.699219 0.125 L 594.878906 0.125 C 597.921875 0.125 600.386719 2.589844 600.386719 5.632812 C 600.386719 8.671875 597.921875 11.136719 594.878906 11.136719 L 532.699219 11.136719 C 529.65625 11.136719 527.191406 8.671875 527.191406 5.632812 C 527.191406 2.589844 529.65625 0.125 532.699219 0.125 Z M 532.699219 0.125 " fill-opacity="0.996" fill-rule="nonzero"/><path fill="#523100" d="M 600.386719 5.632812 L 600.386719 129.996094 C 600.386719 133.035156 597.921875 135.5 594.878906 135.5 C 591.839844 135.5 589.375 133.035156 589.375 129.996094 L 589.375 5.632812 C 589.375 2.589844 591.839844 0.125 594.878906 0.125 C 597.921875 0.125 600.386719 2.589844 600.386719 5.632812 Z M 600.386719 5.632812 " fill-opacity="0.996" fill-rule="nonzero"/><path fill="#523100" d="M 538.203125 129.996094 L 538.203125 378.722656 C 538.203125 381.765625 535.738281 384.230469 532.699219 384.230469 C 529.65625 384.230469 527.191406 381.765625 527.191406 378.722656 L 527.191406 129.996094 C 527.191406 126.953125 529.65625 124.488281 532.699219 124.488281 C 535.738281 124.488281 538.203125 126.953125 538.203125 129.996094 Z M 538.203125 129.996094 " fill-opacity="0.996" fill-rule="nonzero"/><path fill="#523100" d="M 532.699219 373.21875 L 594.878906 373.21875 C 597.921875 373.21875 600.386719 375.683594 600.386719 378.726562 C 600.386719 381.765625 597.921875 384.230469 594.878906 384.230469 L 532.699219 384.230469 C 529.65625 384.230469 527.191406 381.765625 527.191406 378.722656 C 527.191406 375.683594 529.65625 373.21875 532.699219 373.21875 Z M 532.699219 373.21875 " fill-opacity="0.996" fill-rule="nonzero"/><path fill="#523100" d="M 600.386719 129.996094 L 600.386719 378.722656 C 600.386719 381.765625 597.921875 384.230469 594.878906 384.230469 C 591.839844 384.230469 589.375 381.765625 589.375 378.722656 L 589.375 129.996094 C 589.375 126.953125 591.839844 124.488281 594.878906 124.488281 C 597.921875 124.488281 600.386719 126.953125 600.386719 129.996094 Z M 600.386719 129.996094 " fill-opacity="0.996" fill-rule="nonzero"/><g clip-path="url(#91e0c7488d)"><path fill="#523100" d="M 538.203125 378.722656 L 538.203125 503.089844 C 538.203125 506.128906 535.738281 508.59375 532.699219 508.59375 C 529.65625 508.59375 527.191406 506.128906 527.191406 503.089844 L 527.191406 378.722656 C 527.191406 375.683594 529.65625 373.21875 532.699219 373.21875 C 535.738281 373.21875 538.203125 375.683594 538.203125 378.722656 Z M 538.203125 378.722656 " fill-opacity="0.996" fill-rule="nonzero"/></g><g clip-path="url(#8b93053142)"><path fill="#523100" d="M 532.699219 497.582031 L 594.878906 497.582031 C 597.921875 497.582031 600.386719 500.046875 600.386719 503.089844 C 600.386719 506.128906 597.921875 508.59375 594.878906 508.59375 L 532.699219 508.59375 C 529.65625 508.59375 527.191406 506.128906 527.191406 503.085938 C 527.191406 500.046875 529.65625 497.582031 532.699219 497.582031 Z M 532.699219 497.582031 " fill-opacity="0.996" fill-rule="nonzero"/></g><g clip-path="url(#f2d41b637b)"><path fill="#523100" d="M 600.386719 378.722656 L 600.386719 503.085938 C 600.386719 506.128906 597.921875 508.59375 594.878906 508.59375 C 591.839844 508.59375 589.375 506.128906 589.375 503.085938 L 589.375 378.722656 C 589.375 375.683594 591.839844 373.21875 594.878906 373.21875 C 597.921875 373.21875 600.386719 375.683594 600.386719 378.722656 Z M 600.386719 378.722656 " fill-opacity="0.996" fill-rule="nonzero"/></g><path fill="#523100" d="M 594.878906 248.855469 L 719.242188 248.855469 C 722.285156 248.855469 724.75 251.320312 724.75 254.359375 C 724.75 257.402344 722.285156 259.867188 719.242188 259.867188 L 594.878906 259.867188 C 591.839844 259.867188 589.375 257.402344 589.375 254.359375 C 589.375 251.320312 591.839844 248.855469 594.878906 248.855469 Z M 594.878906 248.855469 " fill-opacity="0.996" fill-rule="nonzero"/><path fill="#523100" d="M 594.878906 0.125 L 719.242188 0.125 C 722.285156 0.125 724.75 2.59375 724.75 5.632812 C 724.75 8.671875 722.285156 11.136719 719.242188 11.136719 L 594.878906 11.136719 C 591.839844 11.136719 589.375 8.671875 589.375 5.632812 C 589.375 2.589844 591.839844 0.125 594.878906 0.125 Z M 594.878906 0.125 " fill-opacity="0.996" fill-rule="nonzero"/><g clip-path="url(#c472afc913)"><path fill="#523100" d="M 724.75 5.632812 L 724.75 503.085938 C 724.75 506.128906 722.285156 508.59375 719.242188 508.59375 C 716.203125 508.59375 713.738281 506.128906 713.738281 503.085938 L 713.738281 5.632812 C 713.738281 2.589844 716.203125 0.125 719.242188 0.125 C 722.285156 0.125 724.75 2.589844 724.75 5.632812 Z M 724.75 5.632812 " fill-opacity="0.996" fill-rule="nonzero"/></g><g clip-path="url(#f4941d391f)"><path fill="#523100" d="M 594.878906 497.582031 L 719.242188 497.582031 C 722.285156 497.582031 724.75 500.046875 724.75 503.089844 C 724.75 506.128906 722.285156 508.59375 719.242188 508.59375 L 594.878906 508.59375 C 591.839844 508.59375 589.375 506.128906 589.375 503.085938 C 589.375 500.046875 591.839844 497.582031 594.878906 497.582031 Z M 594.878906 497.582031 " fill-opacity="0.996" fill-rule="nonzero"/></g><path fill="#523100" d="M 719.242188 124.488281 L 781.425781 124.492188 C 784.464844 124.492188 786.929688 126.957031 786.929688 129.996094 C 786.929688 133.039062 784.464844 135.503906 781.425781 135.503906 L 719.242188 135.5 C 716.203125 135.5 713.738281 133.035156 713.738281 129.996094 C 713.738281 126.957031 716.203125 124.488281 719.242188 124.488281 Z M 719.242188 124.488281 " fill-opacity="0.996" fill-rule="nonzero"/><g clip-path="url(#e4a6f50a74)"><path fill="#523100" d="M 786.929688 5.632812 L 786.929688 503.085938 C 786.929688 506.128906 784.464844 508.59375 781.425781 508.59375 C 778.382812 508.59375 775.917969 506.128906 775.917969 503.085938 L 775.917969 5.632812 C 775.917969 2.589844 778.382812 0.125 781.425781 0.125 C 784.464844 0.125 786.929688 2.589844 786.929688 5.632812 Z M 786.929688 5.632812 " fill-opacity="0.996" fill-rule="nonzero"/></g><g clip-path="url(#6686c849f8)"><path fill="#523100" d="M 719.242188 497.582031 L 781.425781 497.582031 C 784.464844 497.582031 786.929688 500.046875 786.929688 503.089844 C 786.929688 506.128906 784.464844 508.59375 781.425781 508.59375 L 719.242188 508.59375 C 716.203125 508.59375 713.738281 506.128906 713.738281 503.085938 C 713.738281 500.046875 716.203125 497.582031 719.242188 497.582031 Z M 719.242188 497.582031 " fill-opacity="0.996" fill-rule="nonzero"/></g><path fill="#523100" d="M 719.242188 373.21875 L 781.425781 373.21875 C 784.464844 373.21875 786.929688 375.683594 786.929688 378.722656 C 786.929688 381.765625 784.464844 384.230469 781.425781 384.230469 L 719.242188 384.230469 C 716.203125 384.230469 713.738281 381.765625 713.738281 378.722656 C 713.738281 375.683594 716.203125 373.21875 719.242188 373.21875 Z M 719.242188 373.21875 " fill-opacity="0.996" fill-rule="nonzero"/><path fill="#523100" d="M 719.242188 0.125 L 781.425781 0.125 C 784.464844 0.125 786.929688 2.59375 786.929688 5.632812 C 786.929688 8.671875 784.464844 11.136719 781.425781 11.136719 L 719.242188 11.136719 C 716.203125 11.136719 713.738281 8.671875 713.738281 5.632812 C 713.738281 2.589844 716.203125 0.125 719.242188 0.125 Z M 719.242188 0.125 " fill-opacity="0.996" fill-rule="nonzero"/><path fill="#523100" d="M 781.425781 248.855469 L 905.785156 248.855469 C 908.828125 248.855469 911.292969 251.320312 911.292969 254.359375 C 911.292969 257.402344 908.828125 259.867188 905.785156 259.867188 L 781.425781 259.867188 C 778.382812 259.867188 775.917969 257.402344 775.917969 254.359375 C 775.917969 251.320312 778.382812 248.855469 781.425781 248.855469 Z M 781.425781 248.855469 " fill-opacity="0.996" fill-rule="nonzero"/><path fill="#523100" d="M 781.425781 0.125 L 905.785156 0.125 C 908.828125 0.125 911.292969 2.589844 911.292969 5.632812 C 911.292969 8.671875 908.828125 11.136719 905.785156 11.136719 L 781.425781 11.136719 C 778.382812 11.136719 775.917969 8.671875 775.917969 5.632812 C 775.917969 2.589844 778.382812 0.125 781.425781 0.125 Z M 781.425781 0.125 " fill-opacity="0.996" fill-rule="nonzero"/><g clip-path="url(#154ab94d0a)"><path fill="#523100" d="M 911.292969 5.632812 L 911.292969 503.085938 C 911.292969 506.128906 908.828125 508.59375 905.785156 508.59375 C 902.746094 508.59375 900.28125 506.128906 900.28125 503.085938 L 900.28125 5.632812 C 900.28125 2.589844 902.746094 0.125 905.785156 0.125 C 908.828125 0.125 911.292969 2.589844 911.292969 5.632812 Z M 911.292969 5.632812 " fill-opacity="0.996" fill-rule="nonzero"/></g><g clip-path="url(#e44aa68f97)"><path fill="#523100" d="M 781.425781 497.582031 L 905.785156 497.582031 C 908.828125 497.582031 911.292969 500.046875 911.292969 503.089844 C 911.292969 506.128906 908.828125 508.59375 905.785156 508.59375 L 781.425781 508.59375 C 778.382812 508.59375 775.917969 506.128906 775.917969 503.085938 C 775.917969 500.046875 778.382812 497.582031 781.425781 497.582031 Z M 781.425781 497.582031 " fill-opacity="0.996" fill-rule="nonzero"/></g><g clip-path="url(#f237da37ad)"><path fill="#523100" d="M 905.785156 0.125 L 967.96875 0.125 C 971.011719 0.125 973.476562 2.59375 973.476562 5.632812 C 973.476562 8.671875 971.011719 11.136719 967.96875 11.136719 L 905.785156 11.136719 C 902.746094 11.136719 900.28125 8.671875 900.28125 5.632812 C 900.28125 2.589844 902.746094 0.125 905.785156 0.125 Z M 905.785156 0.125 " fill-opacity="0.996" fill-rule="nonzero"/></g><g clip-path="url(#a56284e423)"><path fill="#523100" d="M 973.476562 5.632812 L 973.476562 503.085938 C 973.476562 506.128906 971.011719 508.59375 967.96875 508.59375 C 964.929688 508.59375 962.464844 506.128906 962.464844 503.089844 L 962.464844 5.632812 C 962.464844 2.589844 964.929688 0.125 967.96875 0.125 C 971.011719 0.125 973.476562 2.589844 973.476562 5.632812 Z M 973.476562 5.632812 " fill-opacity="0.996" fill-rule="nonzero"/></g><g clip-path="url(#0189dceb6b)"><path fill="#523100" d="M 905.785156 497.582031 L 967.96875 497.582031 C 971.011719 497.582031 973.476562 500.046875 973.476562 503.089844 C 973.476562 506.128906 971.011719 508.59375 967.96875 508.59375 L 905.785156 508.59375 C 902.746094 508.59375 900.28125 506.128906 900.28125 503.085938 C 900.28125 500.046875 902.746094 497.582031 905.785156 497.582031 Z M 905.785156 497.582031 " fill-opacity="0.996" fill-rule="nonzero"/></g><g clip-path="url(#bd5955d9c7)"><path fill="#523100" d="M 905.785156 373.21875 L 967.96875 373.21875 C 971.011719 373.21875 973.476562 375.683594 973.476562 378.726562 C 973.476562 381.765625 971.011719 384.230469 967.96875 384.230469 L 905.785156 384.230469 C 902.746094 384.230469 900.28125 381.765625 900.28125 378.722656 C 900.28125 375.683594 902.746094 373.21875 905.785156 373.21875 Z M 905.785156 373.21875 " fill-opacity="0.996" fill-rule="nonzero"/></g><g clip-path="url(#6187616441)"><path fill="#523100" d="M 905.785156 124.488281 L 967.96875 124.492188 C 971.011719 124.492188 973.476562 126.957031 973.476562 129.996094 C 973.476562 133.039062 971.011719 135.503906 967.96875 135.503906 L 905.785156 135.5 C 902.746094 135.5 900.28125 133.035156 900.28125 129.996094 C 900.28125 126.953125 902.746094 124.488281 905.785156 124.488281 Z M 905.785156 124.488281 " fill-opacity="0.996" fill-rule="nonzero"/></g><path fill="#d19233" d="M 538.203125 10.886719 C 538.136719 10.886719 538.074219 10.914062 538.027344 10.960938 C 537.980469 11.007812 537.953125 11.070312 537.953125 11.136719 L 537.953125 124.488281 C 537.953125 124.628906 538.066406 124.738281 538.203125 124.738281 L 589.375 124.742188 C 589.4375 124.742188 589.503906 124.714844 589.550781 124.667969 C 589.597656 124.621094 589.621094 124.558594 589.621094 124.492188 L 589.621094 11.136719 C 589.621094 11 589.511719 10.890625 589.375 10.890625 Z M 538.203125 10.886719 " fill-opacity="0.996" fill-rule="nonzero"/><path fill="#d19233" d="M 538.203125 383.980469 C 538.136719 383.980469 538.074219 384.007812 538.027344 384.054688 C 537.980469 384.101562 537.953125 384.164062 537.953125 384.230469 L 537.953125 497.582031 C 537.953125 497.71875 538.066406 497.832031 538.203125 497.832031 L 589.375 497.832031 C 589.4375 497.832031 589.503906 497.804688 589.550781 497.757812 C 589.597656 497.710938 589.621094 497.648438 589.621094 497.582031 L 589.621094 384.230469 C 589.621094 384.09375 589.511719 383.980469 589.375 383.980469 Z M 538.203125 383.980469 " fill-opacity="0.996" fill-rule="nonzero"/><path fill="#a56d1b" d="M 600.386719 10.640625 C 600.253906 10.640625 600.125 10.691406 600.03125 10.785156 C 600.003906 10.8125 599.980469 10.84375 599.960938 10.878906 L 599.957031 10.878906 C 599.914062 10.957031 599.886719 11.046875 599.886719 11.136719 L 599.886719 248.855469 C 599.886719 249.128906 600.109375 249.351562 600.386719 249.351562 L 713.738281 249.355469 C 713.859375 249.355469 713.976562 249.308594 714.066406 249.230469 L 714.0625 249.230469 L 714.089844 249.207031 C 714.144531 249.152344 714.183594 249.085938 714.210938 249.015625 C 714.226562 248.964844 714.234375 248.910156 714.234375 248.855469 L 714.234375 11.136719 C 714.234375 10.863281 714.011719 10.640625 713.738281 10.640625 Z M 600.386719 10.640625 " fill-opacity="0.996" fill-rule="nonzero"/><path fill="#a56d1b" d="M 600.386719 259.617188 C 600.320312 259.617188 600.253906 259.644531 600.207031 259.691406 C 600.160156 259.734375 600.136719 259.800781 600.136719 259.867188 L 600.136719 497.582031 C 600.136719 497.71875 600.25 497.832031 600.386719 497.832031 L 713.738281 497.832031 C 713.804688 497.832031 713.867188 497.804688 713.914062 497.757812 C 713.960938 497.710938 713.984375 497.648438 713.984375 497.582031 L 713.984375 259.867188 C 713.984375 259.730469 713.875 259.617188 713.738281 259.617188 Z M 600.386719 259.617188 " fill-opacity="0.996" fill-rule="nonzero"/><path fill="#a56d1b" d="M 786.929688 10.886719 C 786.863281 10.886719 786.800781 10.914062 786.753906 10.960938 C 786.707031 11.007812 786.679688 11.070312 786.679688 11.136719 L 786.679688 248.855469 C 786.679688 248.992188 786.792969 249.101562 786.929688 249.101562 L 900.28125 249.105469 C 900.347656 249.105469 900.410156 249.078125 900.457031 249.03125 C 900.503906 248.984375 900.53125 248.921875 900.53125 248.855469 L 900.53125 11.136719 C 900.53125 11 900.417969 10.890625 900.28125 10.890625 Z M 786.929688 10.886719 " fill-opacity="0.996" fill-rule="nonzero"/><path fill="#a56d1b" d="M 786.929688 259.617188 C 786.863281 259.617188 786.800781 259.644531 786.753906 259.6875 C 786.707031 259.734375 786.679688 259.800781 786.679688 259.867188 L 786.679688 497.582031 C 786.679688 497.71875 786.792969 497.832031 786.929688 497.832031 L 900.28125 497.832031 C 900.347656 497.832031 900.410156 497.804688 900.457031 497.757812 C 900.503906 497.710938 900.53125 497.648438 900.53125 497.582031 L 900.53125 259.867188 C 900.53125 259.730469 900.417969 259.617188 900.28125 259.617188 Z M 786.929688 259.617188 " fill-opacity="0.996" fill-rule="nonzero"/><path fill="#d19233" d="M 538.203125 135.003906 C 538.070312 135.003906 537.945312 135.054688 537.851562 135.148438 C 537.824219 135.175781 537.796875 135.210938 537.777344 135.242188 C 537.730469 135.320312 537.707031 135.410156 537.707031 135.5 L 537.707031 373.21875 C 537.707031 373.492188 537.929688 373.714844 538.203125 373.714844 L 589.375 373.71875 C 589.503906 373.71875 589.632812 373.664062 589.726562 373.570312 C 589.769531 373.53125 589.800781 373.480469 589.824219 373.429688 C 589.855469 373.363281 589.871094 373.292969 589.871094 373.21875 L 589.871094 135.503906 C 589.871094 135.226562 589.648438 135.003906 589.375 135.003906 Z M 538.203125 135.003906 " fill-opacity="0.996" fill-rule="nonzero"/><path fill="#d19233" d="M 724.75 10.886719 C 724.683594 10.886719 724.621094 10.914062 724.574219 10.960938 C 724.527344 11.007812 724.5 11.070312 724.5 11.136719 L 724.5 124.488281 C 724.5 124.628906 724.613281 124.738281 724.75 124.738281 L 775.917969 124.742188 C 775.984375 124.742188 776.046875 124.714844 776.09375 124.667969 C 776.140625 124.621094 776.167969 124.558594 776.167969 124.492188 L 776.167969 11.136719 C 776.167969 11 776.054688 10.890625 775.917969 10.890625 Z M 724.75 10.886719 " fill-opacity="0.996" fill-rule="nonzero"/><path fill="#d19233" d="M 724.75 135.253906 C 724.683594 135.253906 724.621094 135.277344 724.574219 135.324219 C 724.527344 135.371094 724.5 135.4375 724.5 135.5 L 724.5 373.21875 C 724.5 373.355469 724.613281 373.46875 724.75 373.46875 L 775.917969 373.46875 C 775.984375 373.46875 776.046875 373.441406 776.09375 373.394531 C 776.140625 373.347656 776.167969 373.285156 776.167969 373.21875 L 776.167969 135.503906 C 776.167969 135.363281 776.054688 135.253906 775.917969 135.253906 Z M 724.75 135.253906 " fill-opacity="0.996" fill-rule="nonzero"/><path fill="#d19233" d="M 724.75 383.980469 C 724.683594 383.980469 724.621094 384.007812 724.574219 384.054688 C 724.527344 384.101562 724.5 384.164062 724.5 384.230469 L 724.5 497.582031 C 724.5 497.71875 724.613281 497.832031 724.75 497.832031 L 775.917969 497.832031 C 775.984375 497.832031 776.046875 497.804688 776.09375 497.757812 C 776.140625 497.710938 776.167969 497.648438 776.167969 497.582031 L 776.167969 384.230469 C 776.167969 384.09375 776.054688 383.980469 775.917969 383.980469 Z M 724.75 383.980469 " fill-opacity="0.996" fill-rule="nonzero"/><path fill="#d19233" d="M 911.292969 383.980469 C 911.226562 383.980469 911.164062 384.007812 911.117188 384.054688 C 911.070312 384.101562 911.042969 384.164062 911.042969 384.230469 L 911.042969 497.582031 C 911.042969 497.71875 911.15625 497.832031 911.292969 497.832031 L 962.464844 497.832031 C 962.53125 497.832031 962.59375 497.804688 962.640625 497.757812 C 962.6875 497.710938 962.710938 497.648438 962.710938 497.582031 L 962.710938 384.230469 C 962.710938 384.09375 962.601562 383.980469 962.464844 383.980469 Z M 911.292969 383.980469 " fill-opacity="0.996" fill-rule="nonzero"/><path fill="#d19233" d="M 911.292969 135.253906 C 911.226562 135.253906 911.164062 135.277344 911.117188 135.324219 C 911.070312 135.371094 911.042969 135.4375 911.042969 135.5 L 911.042969 373.21875 C 911.042969 373.355469 911.15625 373.464844 911.292969 373.464844 L 962.464844 373.46875 C 962.53125 373.46875 962.59375 373.441406 962.640625 373.394531 C 962.6875 373.347656 962.710938 373.285156 962.710938 373.21875 L 962.710938 135.503906 C 962.710938 135.363281 962.601562 135.253906 962.464844 135.253906 Z M 911.292969 135.253906 " fill-opacity="0.996" fill-rule="nonzero"/><path fill="#d19233" d="M 911.292969 10.886719 C 911.226562 10.886719 911.164062 10.914062 911.117188 10.960938 C 911.070312 11.007812 911.042969 11.070312 911.042969 11.136719 L 911.042969 124.488281 C 911.042969 124.628906 911.15625 124.738281 911.292969 124.738281 L 962.464844 124.742188 C 962.53125 124.742188 962.59375 124.714844 962.640625 124.667969 C 962.6875 124.621094 962.710938 124.558594 962.710938 124.492188 L 962.710938 11.136719 C 962.710938 11 962.601562 10.890625 962.464844 10.890625 Z M 911.292969 10.886719 " fill-opacity="0.996" fill-rule="nonzero"/><g clip-path="url(#0323efa522)"><path fill="#523100" d="M 538.203125 498.785156 L 538.203125 623.148438 C 538.203125 626.191406 535.738281 628.65625 532.699219 628.65625 C 529.65625 628.65625 527.191406 626.191406 527.191406 623.148438 L 527.191406 498.785156 C 527.191406 495.742188 529.65625 493.277344 532.699219 493.277344 C 535.738281 493.277344 538.203125 495.742188 538.203125 498.785156 Z M 538.203125 498.785156 " fill-opacity="0.996" fill-rule="nonzero"/></g><path fill="#523100" d="M 532.699219 617.640625 L 594.878906 617.644531 C 597.921875 617.644531 600.386719 620.109375 600.386719 623.148438 C 600.386719 626.191406 597.921875 628.65625 594.878906 628.65625 L 532.699219 628.65625 C 529.65625 628.65625 527.191406 626.191406 527.191406 623.148438 C 527.191406 620.109375 529.65625 617.640625 532.699219 617.640625 Z M 532.699219 617.640625 " fill-opacity="0.996" fill-rule="nonzero"/><g clip-path="url(#2dd1d04b1d)"><path fill="#523100" d="M 532.699219 493.277344 L 594.878906 493.277344 C 597.921875 493.277344 600.386719 495.746094 600.386719 498.785156 C 600.386719 501.828125 597.921875 504.292969 594.878906 504.292969 L 532.699219 504.292969 C 529.65625 504.292969 527.191406 501.824219 527.191406 498.785156 C 527.191406 495.742188 529.65625 493.277344 532.699219 493.277344 Z M 532.699219 493.277344 " fill-opacity="0.996" fill-rule="nonzero"/></g><g clip-path="url(#b9ebcba4ba)"><path fill="#523100" d="M 600.386719 498.785156 L 600.386719 623.148438 C 600.386719 626.191406 597.921875 628.652344 594.878906 628.652344 C 591.839844 628.652344 589.375 626.191406 589.375 623.148438 L 589.375 498.785156 C 589.375 495.742188 591.839844 493.277344 594.878906 493.277344 C 597.921875 493.277344 600.386719 495.742188 600.386719 498.785156 Z M 600.386719 498.785156 " fill-opacity="0.996" fill-rule="nonzero"/></g><path fill="#523100" d="M 538.203125 623.148438 L 538.203125 871.875 C 538.203125 874.917969 535.738281 877.382812 532.699219 877.382812 C 529.65625 877.382812 527.191406 874.917969 527.191406 871.875 L 527.191406 623.148438 C 527.191406 620.109375 529.65625 617.640625 532.699219 617.640625 C 535.738281 617.640625 538.203125 620.109375 538.203125 623.148438 Z M 538.203125 623.148438 " fill-opacity="0.996" fill-rule="nonzero"/><path fill="#523100" d="M 532.699219 866.371094 L 594.878906 866.371094 C 597.921875 866.371094 600.386719 868.835938 600.386719 871.878906 C 600.386719 874.917969 597.921875 877.382812 594.878906 877.382812 L 532.699219 877.382812 C 529.65625 877.382812 527.191406 874.917969 527.191406 871.875 C 527.191406 868.835938 529.65625 866.371094 532.699219 866.371094 Z M 532.699219 866.371094 " fill-opacity="0.996" fill-rule="nonzero"/><path fill="#523100" d="M 600.386719 623.148438 L 600.386719 871.875 C 600.386719 874.917969 597.921875 877.382812 594.878906 877.382812 C 591.839844 877.382812 589.375 874.917969 589.375 871.875 L 589.375 623.148438 C 589.375 620.109375 591.839844 617.640625 594.878906 617.640625 C 597.921875 617.640625 600.386719 620.109375 600.386719 623.148438 Z M 600.386719 623.148438 " fill-opacity="0.996" fill-rule="nonzero"/><g clip-path="url(#cc19d1b55f)"><path fill="#523100" d="M 538.203125 871.875 L 538.203125 996.242188 C 538.203125 999.28125 535.738281 1001.746094 532.699219 1001.746094 C 529.65625 1001.746094 527.191406 999.28125 527.191406 996.242188 L 527.191406 871.875 C 527.191406 868.835938 529.65625 866.371094 532.699219 866.371094 C 535.738281 866.371094 538.203125 868.835938 538.203125 871.875 Z M 538.203125 871.875 " fill-opacity="0.996" fill-rule="nonzero"/></g><g clip-path="url(#5fe5da7adc)"><path fill="#523100" d="M 532.699219 990.734375 L 594.878906 990.734375 C 597.921875 990.734375 600.386719 993.199219 600.386719 996.242188 C 600.386719 999.28125 597.921875 1001.746094 594.878906 1001.746094 L 532.699219 1001.746094 C 529.65625 1001.746094 527.191406 999.28125 527.191406 996.242188 C 527.191406 993.199219 529.65625 990.734375 532.699219 990.734375 Z M 532.699219 990.734375 " fill-opacity="0.996" fill-rule="nonzero"/></g><g clip-path="url(#3764f9112b)"><path fill="#523100" d="M 600.386719 871.875 L 600.386719 996.242188 C 600.386719 999.28125 597.921875 1001.746094 594.878906 1001.746094 C 591.839844 1001.746094 589.375 999.28125 589.375 996.242188 L 589.375 871.875 C 589.375 868.835938 591.839844 866.371094 594.878906 866.371094 C 597.921875 866.371094 600.386719 868.835938 600.386719 871.875 Z M 600.386719 871.875 " fill-opacity="0.996" fill-rule="nonzero"/></g><path fill="#523100" d="M 594.878906 742.007812 L 719.242188 742.007812 C 722.285156 742.007812 724.75 744.472656 724.75 747.511719 C 724.75 750.554688 722.285156 753.019531 719.242188 753.019531 L 594.878906 753.019531 C 591.839844 753.019531 589.375 750.554688 589.375 747.511719 C 589.375 744.472656 591.839844 742.007812 594.878906 742.007812 Z M 594.878906 742.007812 " fill-opacity="0.996" fill-rule="nonzero"/><g clip-path="url(#158ba57f5a)"><path fill="#523100" d="M 594.878906 493.277344 L 719.242188 493.28125 C 722.285156 493.28125 724.75 495.746094 724.75 498.785156 C 724.75 501.828125 722.285156 504.292969 719.242188 504.292969 L 594.878906 504.289062 C 591.839844 504.289062 589.375 501.824219 589.375 498.785156 C 589.375 495.742188 591.839844 493.277344 594.878906 493.277344 Z M 594.878906 493.277344 " fill-opacity="0.996" fill-rule="nonzero"/></g><g clip-path="url(#a78d70954d)"><path fill="#523100" d="M 724.75 498.785156 L 724.75 996.242188 C 724.75 999.28125 722.285156 1001.746094 719.242188 1001.746094 C 716.203125 1001.746094 713.738281 999.28125 713.738281 996.242188 L 713.738281 498.785156 C 713.738281 495.742188 716.203125 493.277344 719.242188 493.277344 C 722.285156 493.277344 724.75 495.742188 724.75 498.785156 Z M 724.75 498.785156 " fill-opacity="0.996" fill-rule="nonzero"/></g><g clip-path="url(#822bbbc0a7)"><path fill="#523100" d="M 594.878906 990.734375 L 719.242188 990.734375 C 722.285156 990.734375 724.75 993.199219 724.75 996.242188 C 724.75 999.28125 722.285156 1001.746094 719.242188 1001.746094 L 594.878906 1001.746094 C 591.839844 1001.746094 589.375 999.28125 589.375 996.242188 C 589.375 993.199219 591.839844 990.734375 594.878906 990.734375 Z M 594.878906 990.734375 " fill-opacity="0.996" fill-rule="nonzero"/></g><path fill="#523100" d="M 719.242188 617.644531 L 781.425781 617.644531 C 784.464844 617.644531 786.929688 620.109375 786.929688 623.148438 C 786.929688 626.191406 784.464844 628.65625 781.425781 628.65625 L 719.242188 628.65625 C 716.203125 628.65625 713.738281 626.191406 713.738281 623.148438 C 713.738281 620.109375 716.203125 617.644531 719.242188 617.644531 Z M 719.242188 617.644531 " fill-opacity="0.996" fill-rule="nonzero"/><g clip-path="url(#6a1c690ec6)"><path fill="#523100" d="M 786.929688 498.785156 L 786.929688 996.242188 C 786.929688 999.28125 784.464844 1001.746094 781.425781 1001.746094 C 778.382812 1001.746094 775.917969 999.28125 775.917969 996.242188 L 775.917969 498.785156 C 775.917969 495.742188 778.382812 493.277344 781.425781 493.277344 C 784.464844 493.277344 786.929688 495.742188 786.929688 498.785156 Z M 786.929688 498.785156 " fill-opacity="0.996" fill-rule="nonzero"/></g><g clip-path="url(#6e499841b0)"><path fill="#523100" d="M 719.242188 990.734375 L 781.425781 990.734375 C 784.464844 990.734375 786.929688 993.199219 786.929688 996.242188 C 786.929688 999.28125 784.464844 1001.746094 781.425781 1001.746094 L 719.242188 1001.746094 C 716.203125 1001.746094 713.738281 999.28125 713.738281 996.242188 C 713.738281 993.199219 716.203125 990.734375 719.242188 990.734375 Z M 719.242188 990.734375 " fill-opacity="0.996" fill-rule="nonzero"/></g><path fill="#523100" d="M 719.242188 866.371094 L 781.425781 866.371094 C 784.464844 866.371094 786.929688 868.835938 786.929688 871.878906 C 786.929688 874.917969 784.464844 877.382812 781.425781 877.382812 L 719.242188 877.382812 C 716.203125 877.382812 713.738281 874.917969 713.738281 871.875 C 713.738281 868.835938 716.203125 866.371094 719.242188 866.371094 Z M 719.242188 866.371094 " fill-opacity="0.996" fill-rule="nonzero"/><g clip-path="url(#eb69141e9a)"><path fill="#523100" d="M 719.242188 493.277344 L 781.425781 493.277344 C 784.464844 493.277344 786.929688 495.746094 786.929688 498.785156 C 786.929688 501.828125 784.464844 504.292969 781.425781 504.292969 L 719.242188 504.292969 C 716.203125 504.292969 713.738281 501.824219 713.738281 498.785156 C 713.738281 495.742188 716.203125 493.277344 719.242188 493.277344 Z M 719.242188 493.277344 " fill-opacity="0.996" fill-rule="nonzero"/></g><path fill="#523100" d="M 781.425781 742.007812 L 905.785156 742.007812 C 908.828125 742.007812 911.292969 744.472656 911.292969 747.511719 C 911.292969 750.554688 908.828125 753.019531 905.785156 753.019531 L 781.425781 753.019531 C 778.382812 753.019531 775.917969 750.554688 775.917969 747.511719 C 775.917969 744.472656 778.382812 742.007812 781.425781 742.007812 Z M 781.425781 742.007812 " fill-opacity="0.996" fill-rule="nonzero"/><g clip-path="url(#1763766a66)"><path fill="#523100" d="M 781.425781 493.277344 L 905.785156 493.277344 C 908.828125 493.277344 911.292969 495.746094 911.292969 498.785156 C 911.292969 501.828125 908.828125 504.292969 905.785156 504.292969 L 781.425781 504.292969 C 778.382812 504.292969 775.917969 501.824219 775.917969 498.785156 C 775.917969 495.742188 778.382812 493.277344 781.425781 493.277344 Z M 781.425781 493.277344 " fill-opacity="0.996" fill-rule="nonzero"/></g><g clip-path="url(#8c6ed12377)"><path fill="#523100" d="M 911.292969 498.785156 L 911.292969 996.242188 C 911.292969 999.28125 908.828125 1001.746094 905.785156 1001.746094 C 902.746094 1001.746094 900.28125 999.28125 900.28125 996.242188 L 900.28125 498.785156 C 900.28125 495.742188 902.746094 493.277344 905.785156 493.277344 C 908.828125 493.277344 911.292969 495.742188 911.292969 498.785156 Z M 911.292969 498.785156 " fill-opacity="0.996" fill-rule="nonzero"/></g><g clip-path="url(#7dd09e773f)"><path fill="#523100" d="M 781.425781 990.734375 L 905.785156 990.734375 C 908.828125 990.734375 911.292969 993.199219 911.292969 996.242188 C 911.292969 999.28125 908.828125 1001.746094 905.785156 1001.746094 L 781.425781 1001.746094 C 778.382812 1001.746094 775.917969 999.28125 775.917969 996.242188 C 775.917969 993.199219 778.382812 990.734375 781.425781 990.734375 Z M 781.425781 990.734375 " fill-opacity="0.996" fill-rule="nonzero"/></g><g clip-path="url(#ceb5b4403e)"><path fill="#523100" d="M 905.785156 493.277344 L 967.96875 493.28125 C 971.011719 493.28125 973.476562 495.746094 973.476562 498.785156 C 973.476562 501.828125 971.011719 504.292969 967.96875 504.292969 L 905.785156 504.289062 C 902.746094 504.289062 900.28125 501.824219 900.28125 498.785156 C 900.28125 495.742188 902.746094 493.277344 905.785156 493.277344 Z M 905.785156 493.277344 " fill-opacity="0.996" fill-rule="nonzero"/></g><g clip-path="url(#e195089ca7)"><path fill="#523100" d="M 973.476562 498.785156 L 973.476562 996.242188 C 973.476562 999.28125 971.011719 1001.746094 967.96875 1001.746094 C 964.929688 1001.746094 962.464844 999.28125 962.464844 996.242188 L 962.464844 498.785156 C 962.464844 495.742188 964.929688 493.277344 967.96875 493.277344 C 971.011719 493.277344 973.476562 495.742188 973.476562 498.785156 Z M 973.476562 498.785156 " fill-opacity="0.996" fill-rule="nonzero"/></g><g clip-path="url(#77b5963d0b)"><path fill="#523100" d="M 905.785156 990.734375 L 967.96875 990.734375 C 971.011719 990.734375 973.476562 993.199219 973.476562 996.242188 C 973.476562 999.28125 971.011719 1001.746094 967.96875 1001.746094 L 905.785156 1001.746094 C 902.746094 1001.746094 900.28125 999.28125 900.28125 996.238281 C 900.28125 993.199219 902.746094 990.734375 905.785156 990.734375 Z M 905.785156 990.734375 " fill-opacity="0.996" fill-rule="nonzero"/></g><g clip-path="url(#e46dd0561b)"><path fill="#523100" d="M 905.785156 866.371094 L 967.96875 866.371094 C 971.011719 866.371094 973.476562 868.835938 973.476562 871.878906 C 973.476562 874.917969 971.011719 877.382812 967.96875 877.382812 L 905.785156 877.382812 C 902.746094 877.382812 900.28125 874.917969 900.28125 871.875 C 900.28125 868.835938 902.746094 866.371094 905.785156 866.371094 Z M 905.785156 866.371094 " fill-opacity="0.996" fill-rule="nonzero"/></g><g clip-path="url(#52bc5146db)"><path fill="#523100" d="M 905.785156 617.640625 L 967.96875 617.644531 C 971.011719 617.644531 973.476562 620.109375 973.476562 623.148438 C 973.476562 626.191406 971.011719 628.65625 967.96875 628.65625 L 905.785156 628.652344 C 902.746094 628.652344 900.28125 626.191406 900.28125 623.148438 C 900.28125 620.109375 902.746094 617.640625 905.785156 617.640625 Z M 905.785156 617.640625 " fill-opacity="0.996" fill-rule="nonzero"/></g><path fill="#d19233" d="M 538.203125 504.042969 C 538.136719 504.042969 538.074219 504.066406 538.027344 504.113281 C 537.980469 504.160156 537.953125 504.226562 537.953125 504.292969 L 537.953125 617.640625 C 537.953125 617.78125 538.066406 617.890625 538.203125 617.890625 L 589.375 617.894531 C 589.4375 617.894531 589.503906 617.867188 589.550781 617.820312 C 589.597656 617.773438 589.621094 617.710938 589.621094 617.644531 L 589.621094 504.292969 C 589.621094 504.152344 589.511719 504.042969 589.375 504.042969 Z M 538.203125 504.042969 " fill-opacity="0.996" fill-rule="nonzero"/><path fill="#d19233" d="M 538.203125 877.132812 C 538.136719 877.132812 538.074219 877.160156 538.027344 877.207031 C 537.980469 877.253906 537.953125 877.316406 537.953125 877.382812 L 537.953125 990.734375 C 537.953125 990.871094 538.066406 990.984375 538.203125 990.984375 L 589.375 990.984375 C 589.4375 990.984375 589.503906 990.960938 589.550781 990.914062 C 589.597656 990.867188 589.621094 990.800781 589.621094 990.738281 L 589.621094 877.382812 C 589.621094 877.246094 589.511719 877.132812 589.375 877.132812 Z M 538.203125 877.132812 " fill-opacity="0.996" fill-rule="nonzero"/><path fill="#a56d1b" d="M 600.386719 503.792969 C 600.253906 503.792969 600.125 503.84375 600.03125 503.9375 C 600.003906 503.96875 599.980469 504 599.960938 504.03125 L 599.957031 504.03125 C 599.914062 504.109375 599.886719 504.199219 599.886719 504.289062 L 599.886719 742.007812 C 599.886719 742.28125 600.109375 742.503906 600.386719 742.503906 L 713.738281 742.507812 C 713.859375 742.507812 713.976562 742.464844 714.066406 742.382812 L 714.0625 742.382812 L 714.089844 742.359375 C 714.144531 742.304688 714.183594 742.238281 714.210938 742.167969 C 714.226562 742.121094 714.234375 742.0625 714.234375 742.007812 L 714.234375 504.292969 C 714.234375 504.015625 714.011719 503.792969 713.738281 503.792969 Z M 600.386719 503.792969 " fill-opacity="0.996" fill-rule="nonzero"/><path fill="#a56d1b" d="M 600.386719 752.769531 C 600.320312 752.769531 600.253906 752.796875 600.207031 752.84375 C 600.160156 752.890625 600.136719 752.953125 600.136719 753.019531 L 600.136719 990.734375 C 600.136719 990.871094 600.25 990.984375 600.386719 990.984375 L 713.738281 990.984375 C 713.804688 990.984375 713.867188 990.960938 713.914062 990.914062 C 713.960938 990.867188 713.984375 990.800781 713.984375 990.738281 L 713.984375 753.019531 C 713.984375 752.882812 713.875 752.769531 713.738281 752.769531 Z M 600.386719 752.769531 " fill-opacity="0.996" fill-rule="nonzero"/><path fill="#a56d1b" d="M 786.929688 504.042969 C 786.863281 504.042969 786.800781 504.066406 786.753906 504.113281 C 786.707031 504.160156 786.679688 504.226562 786.679688 504.292969 L 786.679688 742.007812 C 786.679688 742.144531 786.792969 742.253906 786.929688 742.253906 L 900.28125 742.257812 C 900.347656 742.257812 900.410156 742.230469 900.457031 742.183594 C 900.503906 742.136719 900.53125 742.074219 900.53125 742.007812 L 900.53125 504.292969 C 900.53125 504.152344 900.417969 504.042969 900.28125 504.042969 Z M 786.929688 504.042969 " fill-opacity="0.996" fill-rule="nonzero"/><path fill="#a56d1b" d="M 786.929688 752.769531 C 786.863281 752.769531 786.800781 752.796875 786.753906 752.84375 C 786.707031 752.890625 786.679688 752.953125 786.679688 753.019531 L 786.679688 990.734375 C 786.679688 990.871094 786.792969 990.984375 786.929688 990.984375 L 900.28125 990.984375 C 900.347656 990.984375 900.410156 990.960938 900.457031 990.914062 C 900.503906 990.863281 900.53125 990.800781 900.53125 990.738281 L 900.53125 753.019531 C 900.53125 752.882812 900.417969 752.769531 900.28125 752.769531 Z M 786.929688 752.769531 " fill-opacity="0.996" fill-rule="nonzero"/><path fill="#d19233" d="M 538.203125 628.15625 C 538.070312 628.15625 537.945312 628.210938 537.851562 628.300781 C 537.824219 628.328125 537.796875 628.363281 537.777344 628.394531 C 537.730469 628.472656 537.707031 628.5625 537.707031 628.65625 L 537.707031 866.371094 C 537.707031 866.644531 537.929688 866.871094 538.203125 866.871094 L 589.375 866.871094 C 589.503906 866.871094 589.632812 866.820312 589.726562 866.726562 C 589.769531 866.683594 589.800781 866.636719 589.824219 866.582031 C 589.855469 866.515625 589.871094 866.445312 589.871094 866.371094 L 589.871094 628.65625 C 589.871094 628.378906 589.648438 628.15625 589.375 628.15625 Z M 538.203125 628.15625 " fill-opacity="0.996" fill-rule="nonzero"/><path fill="#d19233" d="M 724.75 504.042969 C 724.683594 504.042969 724.621094 504.066406 724.574219 504.113281 C 724.527344 504.160156 724.5 504.226562 724.5 504.292969 L 724.5 617.644531 C 724.5 617.78125 724.613281 617.890625 724.75 617.890625 L 775.917969 617.894531 C 775.984375 617.894531 776.046875 617.867188 776.09375 617.820312 C 776.140625 617.773438 776.167969 617.710938 776.167969 617.644531 L 776.167969 504.292969 C 776.167969 504.152344 776.054688 504.042969 775.917969 504.042969 Z M 724.75 504.042969 " fill-opacity="0.996" fill-rule="nonzero"/><path fill="#d19233" d="M 724.75 628.40625 C 724.683594 628.40625 724.621094 628.433594 724.574219 628.480469 C 724.527344 628.523438 724.5 628.589844 724.5 628.65625 L 724.5 866.371094 C 724.5 866.507812 724.613281 866.621094 724.75 866.621094 L 775.917969 866.621094 C 775.984375 866.621094 776.046875 866.59375 776.09375 866.546875 C 776.140625 866.503906 776.167969 866.4375 776.167969 866.371094 L 776.167969 628.65625 C 776.167969 628.519531 776.054688 628.40625 775.917969 628.40625 Z M 724.75 628.40625 " fill-opacity="0.996" fill-rule="nonzero"/><path fill="#d19233" d="M 724.75 877.132812 C 724.683594 877.132812 724.621094 877.160156 724.574219 877.207031 C 724.527344 877.253906 724.5 877.316406 724.5 877.382812 L 724.5 990.734375 C 724.5 990.871094 724.613281 990.984375 724.75 990.984375 L 775.917969 990.984375 C 775.984375 990.984375 776.046875 990.960938 776.09375 990.914062 C 776.140625 990.867188 776.167969 990.800781 776.167969 990.738281 L 776.167969 877.382812 C 776.167969 877.246094 776.054688 877.132812 775.917969 877.132812 Z M 724.75 877.132812 " fill-opacity="0.996" fill-rule="nonzero"/><path fill="#d19233" d="M 911.292969 877.132812 C 911.226562 877.132812 911.164062 877.160156 911.117188 877.207031 C 911.070312 877.253906 911.042969 877.316406 911.042969 877.382812 L 911.042969 990.734375 C 911.042969 990.871094 911.15625 990.984375 911.292969 990.984375 L 962.464844 990.984375 C 962.53125 990.984375 962.59375 990.960938 962.640625 990.914062 C 962.6875 990.867188 962.710938 990.800781 962.710938 990.738281 L 962.710938 877.382812 C 962.710938 877.246094 962.601562 877.132812 962.464844 877.132812 Z M 911.292969 877.132812 " fill-opacity="0.996" fill-rule="nonzero"/><path fill="#d19233" d="M 911.292969 628.40625 C 911.226562 628.40625 911.164062 628.429688 911.117188 628.476562 C 911.070312 628.523438 911.042969 628.589844 911.042969 628.65625 L 911.042969 866.371094 C 911.042969 866.507812 911.15625 866.621094 911.292969 866.621094 L 962.464844 866.621094 C 962.53125 866.621094 962.59375 866.59375 962.640625 866.550781 C 962.6875 866.503906 962.710938 866.4375 962.710938 866.371094 L 962.710938 628.65625 C 962.710938 628.519531 962.601562 628.40625 962.464844 628.40625 Z M 911.292969 628.40625 " fill-opacity="0.996" fill-rule="nonzero"/><path fill="#d19233" d="M 911.292969 504.042969 C 911.226562 504.042969 911.164062 504.066406 911.117188 504.113281 C 911.070312 504.160156 911.042969 504.222656 911.042969 504.289062 L 911.042969 617.640625 C 911.042969 617.78125 911.15625 617.890625 911.292969 617.890625 L 962.464844 617.894531 C 962.53125 617.894531 962.59375 617.867188 962.640625 617.820312 C 962.6875 617.773438 962.710938 617.710938 962.710938 617.644531 L 962.710938 504.292969 C 962.710938 504.152344 962.601562 504.042969 962.464844 504.042969 Z M 911.292969 504.042969 " fill-opacity="0.996" fill-rule="nonzero"/><g clip-path="url(#868a747cc0)"><path fill="#523100" d="M 538.203125 997.121094 L 538.203125 1121.488281 C 538.203125 1124.527344 535.738281 1126.992188 532.699219 1126.992188 C 529.65625 1126.992188 527.191406 1124.527344 527.191406 1121.488281 L 527.191406 997.121094 C 527.191406 994.082031 529.65625 991.617188 532.699219 991.617188 C 535.738281 991.617188 538.203125 994.082031 538.203125 997.121094 Z M 538.203125 997.121094 " fill-opacity="0.996" fill-rule="nonzero"/></g><path fill="#523100" d="M 532.699219 1115.980469 L 594.878906 1115.980469 C 597.921875 1115.980469 600.386719 1118.445312 600.386719 1121.488281 C 600.386719 1124.527344 597.921875 1126.992188 594.878906 1126.992188 L 532.699219 1126.992188 C 529.65625 1126.992188 527.191406 1124.527344 527.191406 1121.488281 C 527.191406 1118.445312 529.65625 1115.980469 532.699219 1115.980469 Z M 532.699219 1115.980469 " fill-opacity="0.996" fill-rule="nonzero"/><g clip-path="url(#17930dcd0a)"><path fill="#523100" d="M 532.699219 991.617188 L 594.878906 991.617188 C 597.921875 991.617188 600.386719 994.082031 600.386719 997.125 C 600.386719 1000.164062 597.921875 1002.628906 594.878906 1002.628906 L 532.699219 1002.628906 C 529.65625 1002.628906 527.191406 1000.164062 527.191406 997.121094 C 527.191406 994.082031 529.65625 991.617188 532.699219 991.617188 Z M 532.699219 991.617188 " fill-opacity="0.996" fill-rule="nonzero"/></g><g clip-path="url(#96c1c66506)"><path fill="#523100" d="M 600.386719 997.121094 L 600.386719 1121.488281 C 600.386719 1124.527344 597.921875 1126.992188 594.878906 1126.992188 C 591.839844 1126.992188 589.375 1124.527344 589.375 1121.488281 L 589.375 997.121094 C 589.375 994.082031 591.839844 991.617188 594.878906 991.617188 C 597.921875 991.617188 600.386719 994.082031 600.386719 997.121094 Z M 600.386719 997.121094 " fill-opacity="0.996" fill-rule="nonzero"/></g><path fill="#523100" d="M 538.203125 1121.488281 L 538.203125 1370.214844 C 538.203125 1373.257812 535.738281 1375.722656 532.699219 1375.722656 C 529.65625 1375.722656 527.191406 1373.257812 527.191406 1370.214844 L 527.191406 1121.488281 C 527.191406 1118.445312 529.65625 1115.980469 532.699219 1115.980469 C 535.738281 1115.980469 538.203125 1118.445312 538.203125 1121.488281 Z M 538.203125 1121.488281 " fill-opacity="0.996" fill-rule="nonzero"/><path fill="#523100" d="M 532.699219 1364.710938 L 594.878906 1364.710938 C 597.921875 1364.710938 600.386719 1367.175781 600.386719 1370.214844 C 600.386719 1373.257812 597.921875 1375.722656 594.878906 1375.722656 L 532.699219 1375.722656 C 529.65625 1375.722656 527.191406 1373.257812 527.191406 1370.214844 C 527.191406 1367.175781 529.65625 1364.710938 532.699219 1364.710938 Z M 532.699219 1364.710938 " fill-opacity="0.996" fill-rule="nonzero"/><path fill="#523100" d="M 600.386719 1121.488281 L 600.386719 1370.214844 C 600.386719 1373.253906 597.921875 1375.722656 594.878906 1375.722656 C 591.839844 1375.722656 589.375 1373.253906 589.375 1370.214844 L 589.375 1121.488281 C 589.375 1118.445312 591.839844 1115.980469 594.878906 1115.980469 C 597.921875 1115.980469 600.386719 1118.445312 600.386719 1121.488281 Z M 600.386719 1121.488281 " fill-opacity="0.996" fill-rule="nonzero"/><g clip-path="url(#ec1e810631)"><path fill="#523100" d="M 538.203125 1370.214844 L 538.203125 1494.578125 C 538.203125 1497.621094 535.738281 1500.085938 532.699219 1500.085938 C 529.65625 1500.085938 527.191406 1497.621094 527.191406 1494.578125 L 527.191406 1370.214844 C 527.191406 1367.175781 529.65625 1364.710938 532.699219 1364.710938 C 535.738281 1364.710938 538.203125 1367.175781 538.203125 1370.214844 Z M 538.203125 1370.214844 " fill-opacity="0.996" fill-rule="nonzero"/></g><g clip-path="url(#66a43eaeb7)"><path fill="#523100" d="M 532.699219 1489.074219 L 594.878906 1489.074219 C 597.921875 1489.074219 600.386719 1491.539062 600.386719 1494.578125 C 600.386719 1497.621094 597.921875 1500.085938 594.878906 1500.085938 L 532.699219 1500.085938 C 529.65625 1500.085938 527.191406 1497.621094 527.191406 1494.578125 C 527.191406 1491.539062 529.65625 1489.074219 532.699219 1489.074219 Z M 532.699219 1489.074219 " fill-opacity="0.996" fill-rule="nonzero"/></g><g clip-path="url(#d346ca6bda)"><path fill="#523100" d="M 600.386719 1370.214844 L 600.386719 1494.578125 C 600.386719 1497.621094 597.921875 1500.085938 594.878906 1500.085938 C 591.839844 1500.085938 589.375 1497.621094 589.375 1494.578125 L 589.375 1370.214844 C 589.375 1367.175781 591.839844 1364.710938 594.878906 1364.710938 C 597.921875 1364.710938 600.386719 1367.175781 600.386719 1370.214844 Z M 600.386719 1370.214844 " fill-opacity="0.996" fill-rule="nonzero"/></g><path fill="#523100" d="M 594.878906 1240.34375 L 719.242188 1240.347656 C 722.285156 1240.347656 724.75 1242.8125 724.75 1245.851562 C 724.75 1248.894531 722.285156 1251.359375 719.242188 1251.359375 L 594.878906 1251.355469 C 591.839844 1251.355469 589.375 1248.890625 589.375 1245.851562 C 589.375 1242.808594 591.839844 1240.34375 594.878906 1240.34375 Z M 594.878906 1240.34375 " fill-opacity="0.996" fill-rule="nonzero"/><g clip-path="url(#80a15224c0)"><path fill="#523100" d="M 594.878906 991.617188 L 719.242188 991.617188 C 722.285156 991.617188 724.75 994.082031 724.75 997.125 C 724.75 1000.164062 722.285156 1002.628906 719.242188 1002.628906 L 594.878906 1002.628906 C 591.839844 1002.628906 589.375 1000.164062 589.375 997.121094 C 589.375 994.082031 591.839844 991.617188 594.878906 991.617188 Z M 594.878906 991.617188 " fill-opacity="0.996" fill-rule="nonzero"/></g><g clip-path="url(#417c205510)"><path fill="#523100" d="M 724.75 997.125 L 724.75 1494.578125 C 724.75 1497.621094 722.285156 1500.085938 719.242188 1500.085938 C 716.203125 1500.085938 713.738281 1497.621094 713.738281 1494.578125 L 713.738281 997.125 C 713.738281 994.082031 716.203125 991.617188 719.242188 991.617188 C 722.285156 991.617188 724.75 994.082031 724.75 997.125 Z M 724.75 997.125 " fill-opacity="0.996" fill-rule="nonzero"/></g><g clip-path="url(#02f0b681f2)"><path fill="#523100" d="M 594.878906 1489.074219 L 719.242188 1489.074219 C 722.285156 1489.074219 724.75 1491.539062 724.75 1494.578125 C 724.75 1497.621094 722.285156 1500.085938 719.242188 1500.085938 L 594.878906 1500.085938 C 591.839844 1500.085938 589.375 1497.621094 589.375 1494.578125 C 589.375 1491.539062 591.839844 1489.074219 594.878906 1489.074219 Z M 594.878906 1489.074219 " fill-opacity="0.996" fill-rule="nonzero"/></g><path fill="#523100" d="M 719.242188 1115.980469 L 781.425781 1115.980469 C 784.464844 1115.980469 786.929688 1118.445312 786.929688 1121.488281 C 786.929688 1124.527344 784.464844 1126.992188 781.425781 1126.992188 L 719.242188 1126.992188 C 716.203125 1126.992188 713.738281 1124.527344 713.738281 1121.488281 C 713.738281 1118.445312 716.203125 1115.980469 719.242188 1115.980469 Z M 719.242188 1115.980469 " fill-opacity="0.996" fill-rule="nonzero"/><g clip-path="url(#afc13399c6)"><path fill="#523100" d="M 786.929688 997.121094 L 786.929688 1494.578125 C 786.929688 1497.621094 784.464844 1500.085938 781.425781 1500.085938 C 778.382812 1500.085938 775.917969 1497.621094 775.917969 1494.578125 L 775.917969 997.125 C 775.917969 994.082031 778.382812 991.617188 781.425781 991.617188 C 784.464844 991.617188 786.929688 994.082031 786.929688 997.121094 Z M 786.929688 997.121094 " fill-opacity="0.996" fill-rule="nonzero"/></g><g clip-path="url(#ca9e66dd4b)"><path fill="#523100" d="M 719.242188 1489.074219 L 781.425781 1489.074219 C 784.464844 1489.074219 786.929688 1491.539062 786.929688 1494.578125 C 786.929688 1497.621094 784.464844 1500.085938 781.425781 1500.085938 L 719.242188 1500.085938 C 716.203125 1500.085938 713.738281 1497.621094 713.738281 1494.578125 C 713.738281 1491.539062 716.203125 1489.074219 719.242188 1489.074219 Z M 719.242188 1489.074219 " fill-opacity="0.996" fill-rule="nonzero"/></g><path fill="#523100" d="M 719.242188 1364.710938 L 781.425781 1364.710938 C 784.464844 1364.710938 786.929688 1367.175781 786.929688 1370.214844 C 786.929688 1373.257812 784.464844 1375.722656 781.425781 1375.722656 L 719.242188 1375.722656 C 716.203125 1375.722656 713.738281 1373.253906 713.738281 1370.214844 C 713.738281 1367.175781 716.203125 1364.710938 719.242188 1364.710938 Z M 719.242188 1364.710938 " fill-opacity="0.996" fill-rule="nonzero"/><g clip-path="url(#41c04ef732)"><path fill="#523100" d="M 719.242188 991.617188 L 781.425781 991.617188 C 784.464844 991.617188 786.929688 994.082031 786.929688 997.125 C 786.929688 1000.164062 784.464844 1002.628906 781.425781 1002.628906 L 719.242188 1002.628906 C 716.203125 1002.628906 713.738281 1000.164062 713.738281 997.125 C 713.738281 994.082031 716.203125 991.617188 719.242188 991.617188 Z M 719.242188 991.617188 " fill-opacity="0.996" fill-rule="nonzero"/></g><path fill="#523100" d="M 781.425781 1240.34375 L 905.785156 1240.347656 C 908.828125 1240.347656 911.292969 1242.808594 911.292969 1245.851562 C 911.292969 1248.894531 908.828125 1251.359375 905.785156 1251.359375 L 781.425781 1251.355469 C 778.382812 1251.355469 775.917969 1248.890625 775.917969 1245.851562 C 775.917969 1242.808594 778.382812 1240.34375 781.425781 1240.34375 Z M 781.425781 1240.34375 " fill-opacity="0.996" fill-rule="nonzero"/><g clip-path="url(#ef8e18e0b0)"><path fill="#523100" d="M 781.425781 991.617188 L 905.785156 991.617188 C 908.828125 991.617188 911.292969 994.082031 911.292969 997.125 C 911.292969 1000.164062 908.828125 1002.628906 905.785156 1002.628906 L 781.425781 1002.628906 C 778.382812 1002.628906 775.917969 1000.164062 775.917969 997.125 C 775.917969 994.082031 778.382812 991.617188 781.425781 991.617188 Z M 781.425781 991.617188 " fill-opacity="0.996" fill-rule="nonzero"/></g><g clip-path="url(#0fb6cf7a97)"><path fill="#523100" d="M 911.292969 997.121094 L 911.292969 1494.578125 C 911.292969 1497.621094 908.828125 1500.085938 905.785156 1500.085938 C 902.746094 1500.085938 900.28125 1497.621094 900.28125 1494.578125 L 900.28125 997.121094 C 900.28125 994.082031 902.746094 991.617188 905.785156 991.617188 C 908.828125 991.617188 911.292969 994.082031 911.292969 997.121094 Z M 911.292969 997.121094 " fill-opacity="0.996" fill-rule="nonzero"/></g><g clip-path="url(#c7a5b12094)"><path fill="#523100" d="M 781.425781 1489.074219 L 905.785156 1489.074219 C 908.828125 1489.074219 911.292969 1491.539062 911.292969 1494.578125 C 911.292969 1497.621094 908.828125 1500.085938 905.785156 1500.085938 L 781.425781 1500.085938 C 778.382812 1500.085938 775.917969 1497.621094 775.917969 1494.578125 C 775.917969 1491.539062 778.382812 1489.074219 781.425781 1489.074219 Z M 781.425781 1489.074219 " fill-opacity="0.996" fill-rule="nonzero"/></g><g clip-path="url(#49cc95f01e)"><path fill="#523100" d="M 905.785156 991.617188 L 967.96875 991.617188 C 971.011719 991.617188 973.476562 994.082031 973.476562 997.125 C 973.476562 1000.164062 971.011719 1002.628906 967.96875 1002.628906 L 905.785156 1002.628906 C 902.746094 1002.628906 900.28125 1000.164062 900.28125 997.121094 C 900.28125 994.082031 902.746094 991.617188 905.785156 991.617188 Z M 905.785156 991.617188 " fill-opacity="0.996" fill-rule="nonzero"/></g><g clip-path="url(#8b8de0d7d5)"><path fill="#523100" d="M 973.476562 997.121094 L 973.476562 1494.578125 C 973.476562 1497.621094 971.011719 1500.085938 967.96875 1500.085938 C 964.929688 1500.085938 962.464844 1497.621094 962.464844 1494.578125 L 962.464844 997.125 C 962.464844 994.082031 964.929688 991.617188 967.96875 991.617188 C 971.011719 991.617188 973.476562 994.082031 973.476562 997.121094 Z M 973.476562 997.121094 " fill-opacity="0.996" fill-rule="nonzero"/></g><g clip-path="url(#4b7144ec6b)"><path fill="#523100" d="M 905.785156 1489.070312 L 967.96875 1489.074219 C 971.011719 1489.074219 973.476562 1491.539062 973.476562 1494.578125 C 973.476562 1497.621094 971.011719 1500.085938 967.96875 1500.085938 L 905.785156 1500.085938 C 902.746094 1500.085938 900.28125 1497.621094 900.28125 1494.578125 C 900.28125 1491.539062 902.746094 1489.070312 905.785156 1489.070312 Z M 905.785156 1489.070312 " fill-opacity="0.996" fill-rule="nonzero"/></g><g clip-path="url(#7dcddae8c9)"><path fill="#523100" d="M 905.785156 1364.707031 L 967.96875 1364.710938 C 971.011719 1364.710938 973.476562 1367.175781 973.476562 1370.214844 C 973.476562 1373.257812 971.011719 1375.722656 967.96875 1375.722656 L 905.785156 1375.722656 C 902.746094 1375.722656 900.28125 1373.253906 900.28125 1370.214844 C 900.28125 1367.171875 902.746094 1364.707031 905.785156 1364.707031 Z M 905.785156 1364.707031 " fill-opacity="0.996" fill-rule="nonzero"/></g><g clip-path="url(#b6cfe0cdfc)"><path fill="#523100" d="M 905.785156 1115.980469 L 967.96875 1115.980469 C 971.011719 1115.980469 973.476562 1118.445312 973.476562 1121.488281 C 973.476562 1124.527344 971.011719 1126.992188 967.96875 1126.992188 L 905.785156 1126.992188 C 902.746094 1126.992188 900.28125 1124.527344 900.28125 1121.488281 C 900.28125 1118.445312 902.746094 1115.980469 905.785156 1115.980469 Z M 905.785156 1115.980469 " fill-opacity="0.996" fill-rule="nonzero"/></g><path fill="#d19233" d="M 538.203125 1002.378906 C 538.136719 1002.378906 538.074219 1002.40625 538.027344 1002.453125 C 537.980469 1002.5 537.953125 1002.5625 537.953125 1002.628906 L 537.953125 1115.980469 C 537.953125 1116.117188 538.066406 1116.230469 538.203125 1116.230469 L 589.375 1116.230469 C 589.4375 1116.230469 589.503906 1116.207031 589.550781 1116.160156 C 589.597656 1116.113281 589.621094 1116.046875 589.621094 1115.984375 L 589.621094 1002.628906 C 589.621094 1002.492188 589.511719 1002.378906 589.375 1002.378906 Z M 538.203125 1002.378906 " fill-opacity="0.996" fill-rule="nonzero"/><path fill="#d19233" d="M 538.203125 1375.472656 C 538.136719 1375.472656 538.074219 1375.5 538.027344 1375.546875 C 537.980469 1375.59375 537.953125 1375.65625 537.953125 1375.722656 L 537.953125 1489.074219 C 537.953125 1489.210938 538.066406 1489.324219 538.203125 1489.324219 L 589.375 1489.324219 C 589.4375 1489.324219 589.503906 1489.296875 589.550781 1489.25 C 589.597656 1489.203125 589.621094 1489.140625 589.621094 1489.074219 L 589.621094 1375.722656 C 589.621094 1375.585938 589.511719 1375.472656 589.375 1375.472656 Z M 538.203125 1375.472656 " fill-opacity="0.996" fill-rule="nonzero"/><path fill="#a56d1b" d="M 600.386719 1002.128906 C 600.253906 1002.128906 600.125 1002.183594 600.03125 1002.277344 C 600.003906 1002.304688 599.980469 1002.335938 599.960938 1002.371094 L 599.957031 1002.371094 C 599.914062 1002.445312 599.886719 1002.539062 599.886719 1002.628906 L 599.886719 1240.34375 C 599.886719 1240.621094 600.109375 1240.84375 600.386719 1240.84375 L 713.738281 1240.84375 C 713.859375 1240.84375 713.976562 1240.800781 714.066406 1240.722656 L 714.0625 1240.722656 L 714.089844 1240.699219 C 714.144531 1240.644531 714.183594 1240.578125 714.210938 1240.507812 C 714.226562 1240.457031 714.234375 1240.402344 714.234375 1240.347656 L 714.234375 1002.628906 C 714.234375 1002.355469 714.011719 1002.132812 713.738281 1002.132812 Z M 600.386719 1002.128906 " fill-opacity="0.996" fill-rule="nonzero"/><path fill="#a56d1b" d="M 600.386719 1251.109375 C 600.320312 1251.109375 600.253906 1251.132812 600.207031 1251.179688 C 600.160156 1251.226562 600.136719 1251.292969 600.136719 1251.355469 L 600.136719 1489.074219 C 600.136719 1489.210938 600.25 1489.320312 600.386719 1489.320312 L 713.738281 1489.324219 C 713.804688 1489.324219 713.867188 1489.296875 713.914062 1489.25 C 713.960938 1489.203125 713.984375 1489.140625 713.984375 1489.074219 L 713.984375 1251.359375 C 713.984375 1251.21875 713.875 1251.109375 713.738281 1251.109375 Z M 600.386719 1251.109375 " fill-opacity="0.996" fill-rule="nonzero"/><path fill="#a56d1b" d="M 786.929688 1002.378906 C 786.863281 1002.378906 786.800781 1002.40625 786.753906 1002.453125 C 786.707031 1002.5 786.679688 1002.5625 786.679688 1002.628906 L 786.679688 1240.34375 C 786.679688 1240.480469 786.792969 1240.59375 786.929688 1240.59375 L 900.28125 1240.597656 C 900.347656 1240.597656 900.410156 1240.570312 900.457031 1240.523438 C 900.503906 1240.476562 900.53125 1240.414062 900.53125 1240.347656 L 900.53125 1002.628906 C 900.53125 1002.492188 900.417969 1002.378906 900.28125 1002.378906 Z M 786.929688 1002.378906 " fill-opacity="0.996" fill-rule="nonzero"/><path fill="#a56d1b" d="M 786.929688 1251.109375 C 786.863281 1251.109375 786.800781 1251.132812 786.753906 1251.179688 C 786.707031 1251.226562 786.679688 1251.292969 786.679688 1251.355469 L 786.679688 1489.074219 C 786.679688 1489.210938 786.792969 1489.320312 786.929688 1489.320312 L 900.28125 1489.324219 C 900.347656 1489.324219 900.410156 1489.296875 900.457031 1489.25 C 900.503906 1489.203125 900.53125 1489.140625 900.53125 1489.074219 L 900.53125 1251.359375 C 900.53125 1251.21875 900.417969 1251.109375 900.28125 1251.109375 Z M 786.929688 1251.109375 " fill-opacity="0.996" fill-rule="nonzero"/><path fill="#d19233" d="M 538.203125 1126.496094 C 538.070312 1126.496094 537.945312 1126.546875 537.851562 1126.640625 C 537.824219 1126.667969 537.796875 1126.703125 537.777344 1126.734375 C 537.730469 1126.8125 537.707031 1126.902344 537.707031 1126.992188 L 537.707031 1364.710938 C 537.707031 1364.984375 537.929688 1365.207031 538.203125 1365.207031 L 589.375 1365.210938 C 589.503906 1365.210938 589.632812 1365.15625 589.726562 1365.0625 C 589.769531 1365.019531 589.800781 1364.972656 589.824219 1364.921875 C 589.855469 1364.855469 589.871094 1364.785156 589.871094 1364.710938 L 589.871094 1126.992188 C 589.871094 1126.71875 589.648438 1126.496094 589.375 1126.496094 Z M 538.203125 1126.496094 " fill-opacity="0.996" fill-rule="nonzero"/><path fill="#d19233" d="M 724.75 1002.378906 C 724.683594 1002.378906 724.621094 1002.40625 724.574219 1002.453125 C 724.527344 1002.5 724.5 1002.5625 724.5 1002.628906 L 724.5 1115.980469 C 724.5 1116.117188 724.613281 1116.230469 724.75 1116.230469 L 775.917969 1116.230469 C 775.984375 1116.230469 776.046875 1116.207031 776.09375 1116.160156 C 776.140625 1116.113281 776.167969 1116.050781 776.167969 1115.984375 L 776.167969 1002.628906 C 776.167969 1002.492188 776.054688 1002.378906 775.917969 1002.378906 Z M 724.75 1002.378906 " fill-opacity="0.996" fill-rule="nonzero"/><path fill="#d19233" d="M 724.75 1126.746094 C 724.683594 1126.746094 724.621094 1126.769531 724.574219 1126.816406 C 724.527344 1126.863281 724.5 1126.925781 724.5 1126.992188 L 724.5 1364.710938 C 724.5 1364.847656 724.613281 1364.957031 724.75 1364.957031 L 775.917969 1364.960938 C 775.984375 1364.960938 776.046875 1364.933594 776.09375 1364.886719 C 776.140625 1364.839844 776.167969 1364.777344 776.167969 1364.710938 L 776.167969 1126.992188 C 776.167969 1126.855469 776.054688 1126.746094 775.917969 1126.746094 Z M 724.75 1126.746094 " fill-opacity="0.996" fill-rule="nonzero"/><path fill="#d19233" d="M 724.75 1375.472656 C 724.683594 1375.472656 724.621094 1375.5 724.574219 1375.546875 C 724.527344 1375.59375 724.5 1375.65625 724.5 1375.722656 L 724.5 1489.074219 C 724.5 1489.210938 724.613281 1489.320312 724.75 1489.320312 L 775.917969 1489.324219 C 775.984375 1489.324219 776.046875 1489.296875 776.09375 1489.25 C 776.140625 1489.203125 776.167969 1489.140625 776.167969 1489.074219 L 776.167969 1375.722656 C 776.167969 1375.585938 776.054688 1375.472656 775.917969 1375.472656 Z M 724.75 1375.472656 " fill-opacity="0.996" fill-rule="nonzero"/><path fill="#d19233" d="M 911.292969 1375.472656 C 911.226562 1375.472656 911.164062 1375.5 911.117188 1375.546875 C 911.070312 1375.589844 911.042969 1375.65625 911.042969 1375.722656 L 911.042969 1489.070312 C 911.042969 1489.210938 911.15625 1489.320312 911.292969 1489.320312 L 962.464844 1489.324219 C 962.53125 1489.324219 962.59375 1489.296875 962.640625 1489.25 C 962.6875 1489.203125 962.710938 1489.140625 962.710938 1489.074219 L 962.710938 1375.722656 C 962.710938 1375.585938 962.601562 1375.472656 962.464844 1375.472656 Z M 911.292969 1375.472656 " fill-opacity="0.996" fill-rule="nonzero"/><path fill="#d19233" d="M 911.292969 1126.742188 C 911.226562 1126.742188 911.164062 1126.769531 911.117188 1126.816406 C 911.070312 1126.863281 911.042969 1126.925781 911.042969 1126.992188 L 911.042969 1364.710938 C 911.042969 1364.847656 911.15625 1364.957031 911.292969 1364.957031 L 962.464844 1364.960938 C 962.53125 1364.960938 962.59375 1364.933594 962.640625 1364.886719 C 962.6875 1364.839844 962.710938 1364.777344 962.710938 1364.710938 L 962.710938 1126.992188 C 962.710938 1126.855469 962.601562 1126.746094 962.464844 1126.746094 Z M 911.292969 1126.742188 " fill-opacity="0.996" fill-rule="nonzero"/><path fill="#d19233" d="M 911.292969 1002.378906 C 911.226562 1002.378906 911.164062 1002.40625 911.117188 1002.453125 C 911.070312 1002.5 911.042969 1002.5625 911.042969 1002.628906 L 911.042969 1115.980469 C 911.042969 1116.117188 911.15625 1116.230469 911.292969 1116.230469 L 962.464844 1116.230469 C 962.53125 1116.230469 962.59375 1116.207031 962.640625 1116.160156 C 962.6875 1116.113281 962.710938 1116.050781 962.710938 1115.984375 L 962.710938 1002.628906 C 962.710938 1002.492188 962.601562 1002.378906 962.464844 1002.378906 Z M 911.292969 1002.378906 " fill-opacity="0.996" fill-rule="nonzero"/></svg>